PathFileType	4	(X/Y/Z)	/Users/visionmauri/1_1_1_f_Sports2D/1_1_1_f_Sports2D_px_person00.trc
DataRate	CameraRate	NumFrames	NumMarkers	Units	OrigDataRate	OrigDataStartFrame	OrigNumFrames
30.0	30.0	8	22	m	30.0	0	358
Frame#	Time	Hip			RHip			RKnee			RAnkle			RBigToe			RSmallToe			RHeel			LHip			LKnee			LAnkle			LBigToe			LSmallToe			LHeel			Neck			Head			Nose			RShoulder			RElbow			RWrist			LShoulder			LElbow			LWrist			
		X1	Y1	Z1	X2	Y2	Z2	X3	Y3	Z3	X4	Y4	Z4	X5	Y5	Z5	X6	Y6	Z6	X7	Y7	Z7	X8	Y8	Z8	X9	Y9	Z9	X10	Y10	Z10	X11	Y11	Z11	X12	Y12	Z12	X13	Y13	Z13	X14	Y14	Z14	X15	Y15	Z15	X16	Y16	Z16	X17	Y17	Z17	X18	Y18	Z18	X19	Y19	Z19	X20	Y20	Z20	X21	Y21	Z21	X22	Y22	Z22
0	0.0	559.444313314739	980.943439523097	0.0	638.7293863502088	1007.3713525299594	0.0	643.1340150084671	1350.9388880292026	0.0	638.7295757090351	1694.5081664855463	0.0	607.895231328608	1738.5573230358311	0.0	678.3715470932979	1742.9614522243314	0.0	629.9204141225705	1756.174451810177	0.0	475.7549605435646	1002.9664544732776	0.0	480.1598253415851	1320.112094960187	0.0	506.58892763932386	1659.2736410801915	0.0	524.2073237864755	1764.983502965539	0.0	466.94516586723734	1756.1743889071267	0.0	510.99315496390864	1720.942248808016	0.0	533.0165345222198	505.23458884359474	0.0	519.8022832417678	337.85260317411223	0.0	510.9912733462308	439.16148718620815	0.0	691.5864472268738	580.1134214044174	0.0	766.4662484439633	813.5637930961607	0.0	801.7043663977247	967.7282368576389	0.0	392.065550812931	588.9228351113776	0.0	339.208444434923	835.5878139011922	0.0	356.82654039004734	857.6105625190311	0.0
1	0.03342670401493931	558.9843961057132	981.2408828257016	0.0	637.6393909402362	1009.3908509411727	0.0	643.5517884576004	1352.4703922691253	0.0	639.1623550859131	1694.6017967650837	0.0	616.0692596435813	1736.6311182660368	0.0	681.7924010165467	1742.0711495329742	0.0	630.4075326879528	1756.2403181711309	0.0	475.5913876566951	1005.2334907004268	0.0	479.71610047807076	1322.4825790619068	0.0	508.05117057323287	1654.586508666173	0.0	526.1073707370495	1763.2607609444349	0.0	470.3672797218931	1755.092632268969	0.0	512.5488475357639	1715.9415064005916	0.0	533.7952231862915	503.78346780818316	0.0	520.6693064644426	340.41332890950156	0.0	508.4744846096175	441.25778331485037	0.0	691.7208323746253	581.830644944761	0.0	765.1300606135685	812.873129660776	0.0	801.5300678533587	967.8421032468162	0.0	392.6098178620397	587.4918530283996	0.0	340.90316156905874	832.3048071121674	0.0	356.72142722022943	861.510421475415	0.0
2	0.06685340802987862	557.1048768120053	979.4448682678822	0.0	635.7587273839007	1010.2743135348811	0.0	643.1465509500806	1353.2553594373874	0.0	638.809972005254	1695.003448071924	0.0	624.7752622547474	1733.0744020372067	0.0	684.2722508334369	1740.6388447402855	0.0	630.2032484102928	1756.3193687166713	0.0	474.40553349901353	1005.891134155832	0.0	477.68159289401484	1318.7913460414677	0.0	506.85666193832674	1652.8384671975223	0.0	525.3215986137377	1762.7507550474947	0.0	470.2494015863879	1754.0180954322018	0.0	512.4001092453333	1710.0357146677939	0.0	534.3788707181525	503.0181088483737	0.0	521.4003153614983	345.4981696696287	0.0	507.10934616331355	444.3230367147509	0.0	691.391728928493	583.1013777271538	0.0	764.6629466422564	812.5801693737758	0.0	801.5980781021162	968.8532802167377	0.0	392.97259650708304	585.7834358781037	0.0	341.9121932093226	830.2453986162913	0.0	357.0501649144162	872.2863476808046	0.0
3	0.10028011204481793	553.7836473383043	975.6515891320906	0.0	633.6840084301913	1008.7121781068408	0.0	641.9597912328978	1353.3268185232562	0.0	637.6926729351269	1696.1043693625911	0.0	628.2727495251909	1729.5232567101104	0.0	684.4522688832502	1740.5574353731467	0.0	629.1915928497981	1756.8665844019545	0.0	472.0168860026867	1003.1809468910882	0.0	474.2718425964465	1302.911500760759	0.0	501.7322482212224	1654.4268453035709	0.0	519.7689949865215	1763.7882852811597	0.0	464.4396722919488	1753.0083021307003	0.0	509.1219604228599	1704.8189945860056	0.0	534.560446562694	504.2466709927253	0.0	521.6827488881428	352.7716006323881	0.0	508.0777612614484	448.43617312613196	0.0	690.6810565030503	583.4597462928558	0.0	765.3813640327975	813.3297288743211	0.0	801.9703833985775	971.3473412344923	0.0	391.991289142858	584.5842087550283	0.0	341.03256566697	830.4388826047822	0.0	358.10174175114554	886.7165826688789	0.0
4	0.13370681605975723	550.7433386938357	972.696625279797	0.0	632.3283035434157	1005.5326365726727	0.0	641.165899584483	1353.6844142869845	0.0	636.8796219023018	1697.2523569462417	0.0	624.2079440704948	1727.0525428834605	0.0	683.5156122445552	1741.8219918322734	0.0	628.0378258100494	1757.883543159036	0.0	469.58867676361547	998.2813173966382	0.0	471.33420159536183	1281.2429749983162	0.0	495.3615686245505	1655.1110943241365	0.0	511.9534014542438	1763.14989612363	0.0	457.41852634110523	1751.6591091333423	0.0	504.3791864759889	1702.7771784557247	0.0	534.2136412359163	506.9385658616158	0.0	521.3383746692809	360.56287350960883	0.0	509.31969489148554	454.1092274493085	0.0	689.7352797047618	583.3427310231546	0.0	766.4279847711483	815.1981293220642	0.0	802.4165472091515	975.180908902025	0.0	389.45862459269483	584.2687197070475	0.0	337.73910955940624	832.6649348763199	0.0	359.4334710634214	893.7574158877501	0.0
5	0.16713352007469653	549.2217492924312	972.4464764670877	0.0	631.2376359393046	1003.0336210058584	0.0	641.347842335264	1354.308375249503	0.0	636.8701774245513	1697.226048543487	0.0	618.7381679772209	1723.9727281102018	0.0	683.7755913639311	1741.0032460144992	0.0	627.2342019743829	1757.873856517507	0.0	468.24445034003077	994.5055200326698	0.0	470.34280547639315	1270.9926133333397	0.0	492.20834302878177	1651.7751929262959	0.0	507.0700464374963	1759.866401183018	0.0	456.09413850045115	1750.5596834912153	0.0	501.4974575638693	1703.7885156561003	0.0	533.0505759616991	509.3487536407894	0.0	520.4360698326378	367.58869125537086	0.0	508.70077693197493	461.8704086592984	0.0	688.1138154658391	583.2368472001926	0.0	766.5649174952815	816.5453968283668	0.0	802.9128529230093	979.0077261672645	0.0	387.2267298585415	584.5553153769112	0.0	333.4857495740381	835.771160045851	0.0	360.21003328277055	891.4912847452557	0.0
6	0.20056022408963586	548.2075966389473	973.174352101406	0.0	629.4842461104985	1001.8574620495731	0.0	641.3081786628974	1354.1125698204846	0.0	636.7195895630533	1696.6335809453526	0.0	616.6323451053547	1721.3217039156482	0.0	683.96854029756	1738.6796264682325	0.0	626.7015123739013	1756.3298813597412	0.0	467.30904941029667	992.9584331424961	0.0	470.7585020495804	1273.8094160440887	0.0	492.792723151207	1647.4656525570467	0.0	506.1864298637144	1759.7111167335577	0.0	459.1396045372329	1751.8740836991537	0.0	500.490659946399	1704.1870189062663	0.0	531.139548792486	512.1263376545021	0.0	519.3623174190454	372.9311694769461	0.0	509.20514024712867	470.4157998443476	0.0	685.6942838085587	582.9230372256466	0.0	765.267093900518	815.0148819496924	0.0	803.7528965349632	981.3042649207038	0.0	386.59973978761235	585.6948049472807	0.0	330.7827060018775	837.3753469717655	0.0	359.85097887119747	890.3561562825115	0.0
7	0.23398692810457516	546.5723490861396	973.0996718903442	0.0	627.7259585740154	1001.2703374833675	0.0	639.8246779525149	1352.7391410630435	0.0	636.0406168051444	1697.1145781464975	0.0	616.5899639134461	1721.8138448725879	0.0	681.5624623299868	1738.7729457518985	0.0	626.3029973287657	1754.8113496264932	0.0	465.6011851060737	992.8476118528165	0.0	470.77445350103744	1275.6415686817518	0.0	493.66710168426545	1647.2034020496455	0.0	506.53292773277656	1763.6596923146108	0.0	460.1371195804725	1754.7881551433316	0.0	499.57256094051894	1702.6220284812225	0.0	529.1916337157872	516.2021185592603	0.0	518.4322774619723	377.0232849948106	0.0	513.1809285170084	477.0783880311167	0.0	683.0964055277414	582.7329482566809	0.0	762.9712040927599	810.8672733462367	0.0	804.7560432054955	981.7638268014337	0.0	386.61185369613185	587.5378036866962	0.0	330.3917963208599	835.1040310739376	0.0	357.4535260002877	890.1065804084456	0.0
